<svg id="Layer_1" data-name="Layer 1" xmlns="http://www.w3.org/2000/svg" xmlns:xlink="http://www.w3.org/1999/xlink" viewBox="0 0 1564.88 1497.49"><defs><style>.cls-1{fill:url(#linear-gradient);}</style><linearGradient id="linear-gradient" x1="778.32" y1="1343.81" x2="1833.03" y2="151.45" gradientUnits="userSpaceOnUse"><stop offset="0" stop-color="#00335f"/><stop offset="0.08" stop-color="#053869"/><stop offset="0.2" stop-color="#124683"/><stop offset="0.36" stop-color="#285dae"/><stop offset="0.42" stop-color="#3066be"/></linearGradient></defs><path class="cls-1" d="M145.66,1025.91,396,1123.12c11.92,64.12,44.21,189.22,142.14,311.78C659.05,1586.23,809,1644.71,871,1665.07c68.21,23.53,266.06,81.71,497.94,7.34,166.81-53.5,274.25-150.91,325.54-204.49l-233.84-239.35c-34.85,28.07-165.88,126.71-358.55,122.88-179.08-3.55-300-93.4-336.55-122.88,492.25,21.17,870.41-164.45,931.69-405.32,15-59,34.74-214.56-50.44-353-60-97.53-146-144.32-202.66-175.15-138.82-75.52-272.33-84.59-347.55-83.45-73,4.27-218.41,22.76-369.55,116.46C538.39,445,453.47,609.25,423.51,675.61l339.3,91.71c48.14-57.73,156.65-169.14,320-194.41,49.88-7.72,173.1-26.77,227.42,44,24.32,31.7,35.08,82,19.26,123.8C1284.08,860.84,1036,867,913.2,870c-47.94,1.19-208.74,2.24-409-60.52A1352,1352,0,0,1,298.8,726.05Z" transform="translate(-145.66 -211.51)"/></svg>